Coordinates
version=1
nRows=12
nColumns=46
inDegrees=yes

Units are S.I. units (second, meters, Newtons, ...)
Angles are in degrees.

endheader
time	pelvis_tilt	pelvis_list	pelvis_rotation	pelvis_tx	pelvis_ty	pelvis_tz	bb_angle	bb_tx	bb_ty	bb_tz	hip_flexion_r	hip_adduction_r	hip_rotation_r	knee_angle_r	knee_angle_r_beta	ankle_angle_r	subtalar_angle_r	mtp_angle_r	crank_angle_r	hip_flexion_l	hip_adduction_l	hip_rotation_l	knee_angle_l	knee_angle_l_beta	ankle_angle_l	subtalar_angle_l	mtp_angle_l	crank_angle_l	lumbar_extension	lumbar_bending	lumbar_rotation	arm_flex_r	arm_add_r	arm_rot_r	elbow_flex_r	pro_sup_r	wrist_flex_r	wrist_dev_r	arm_flex_l	arm_add_l	arm_rot_l	elbow_flex_l	pro_sup_l	wrist_flex_l	wrist_dev_l
      5.00500000	    -32.13226878	      2.76530169	    -19.50105076	      0.37379925	      1.16983224	     -0.29330733	      0.00000000	      0.50000000	      0.00000000	      0.25000000	     61.06079212	      2.70030396	      2.53410149	     53.24965206	      0.92938175	      4.55274432	      5.37204201	      0.00000000	      0.00000000	     50.55594675	     -7.40408576	     -0.27060678	     71.44798031	      1.24700250	    -28.72870615	     -6.56460915	      0.00000000	      0.00000000	    -62.25955826	     -4.98857933	      7.94943217	     51.15622698	    -29.17758070	     23.85914597	    102.84022389	     52.55871961	      0.00000000	      0.00000000	     31.11449534	    -23.39669363	      6.40347740	     99.00691623	     50.62026634	      0.00000000	      0.00000000
      5.01000000	    -31.79088031	      3.54082376	    -18.71370151	      0.37399623	      1.16792146	     -0.29337087	      0.00000000	      0.50000000	      0.00000000	      0.25000000	     59.74558163	      1.80474619	      3.39680618	     51.05848868	      0.89113874	      3.48979752	      5.29790543	      0.00000000	      0.00000000	     51.54511778	     -6.37896291	     -0.49495976	     73.90459787	      1.28987857	    -27.61859094	     -6.81774360	      0.00000000	      0.00000000	    -62.10784435	     -5.05157081	      6.95692177	     50.71211212	    -29.45082181	     23.78110341	    102.85445641	     52.55887965	      0.00000000	      0.00000000	     31.26045459	    -23.18605925	      6.64038766	     98.96792563	     50.64031194	      0.00000000	      0.00000000
      5.01500000	    -31.79021797	      3.92214072	    -17.93178728	      0.37393417	      1.16568114	     -0.29334655	      0.00000000	      0.50000000	      0.00000000	      0.25000000	     58.57699265	      1.29516089	      3.86573703	     48.67595379	      0.84955566	      1.57883098	      3.79799492	      0.00000000	      0.00000000	     52.90965123	     -5.75378646	     -0.22294770	     76.55040242	      1.33605657	    -25.75897423	     -5.99918219	      0.00000000	      0.00000000	    -61.65982190	     -5.06525336	      8.27929380	     47.95392482	    -31.73943417	     21.23625437	    105.00721219	     52.63654106	      0.00000000	      0.00000000	     33.20668012	    -21.87971405	      9.29726137	     97.19704411	     50.74392791	      0.00000000	      0.00000000
      5.02000000	    -31.51909121	      4.65439191	    -17.08831480	      0.37429092	      1.16361750	     -0.29352348	      0.00000000	      0.50000000	      0.00000000	      0.25000000	     57.32990734	      0.32670763	      4.53872409	     46.57117404	      0.81282032	      0.11740281	      3.35802506	      0.00000000	      0.00000000	     54.00537680	     -4.69648675	     -0.35393611	     78.98051216	      1.37846998	    -24.50581610	     -6.17894983	      0.00000000	      0.00000000	    -61.46708797	     -5.08928716	      7.36722259	     47.45898039	    -32.10796762	     21.16558325	    104.93938565	     52.62426450	      0.00000000	      0.00000000	     33.19963151	    -21.82983941	      9.38369411	     97.09499187	     50.74339063	      0.00000000	      0.00000000
      5.02500000	    -31.54047209	      5.01439150	    -16.25557882	      0.37423571	      1.16125505	     -0.29312224	      0.00000000	      0.50000000	      0.00000000	      0.25000000	     56.16126099	     -0.14859715	      5.07610857	     44.34435921	      0.77395507	     -1.91711065	      1.59348613	      0.00000000	      0.00000000	     55.47127667	     -4.09337975	     -0.10115842	     81.54749045	      1.42327221	    -23.10105445	     -5.49486090	      0.00000000	      0.00000000	    -61.02431052	     -5.02108011	      6.99785171	     46.63990797	    -32.79501096	     20.89358356	    105.05295374	     52.61824590	      0.00000000	      0.00000000	     33.37834283	    -21.60894811	      9.86917058	     96.96122423	     50.79831193	      0.00000000	      0.00000000
      5.03000000	    -31.26174901	      5.74361697	    -15.30399984	      0.37456543	      1.15929649	     -0.29297989	      0.00000000	      0.50000000	      0.00000000	      0.25000000	     54.84286011	     -1.19122825	      5.66237745	     42.31512238	      0.73853821	     -3.46616784	      0.95395072	      0.00000000	      0.00000000	     56.63941113	     -3.04374966	     -0.28571742	     83.86401951	      1.46370326	    -22.12034054	     -5.64867329	      0.00000000	      0.00000000	    -60.85235711	     -5.06740141	      6.02037912	     46.06870158	    -33.22961660	     20.78189932	    105.00483938	     52.60639670	      0.00000000	      0.00000000	     33.57429566	    -21.48661570	     10.11403766	     96.90420280	     50.81825791	      0.00000000	      0.00000000
      5.03500000	    -31.19190655	      6.12229521	    -14.45106747	      0.37460170	      1.15714217	     -0.29245650	      0.00000000	      0.50000000	      0.00000000	      0.25000000	     53.54376796	     -1.74641051	      6.13713400	     40.16828969	      0.70106891	     -5.67870216	     -1.05590696	      0.00000000	      0.00000000	     58.06604722	     -2.48520918	     -0.22870423	     86.28266520	      1.50591660	    -21.10426824	     -5.26728555	      0.00000000	      0.00000000	    -60.57659052	     -5.06065642	      5.86022353	     45.08557133	    -34.11000609	     20.21004751	    105.28476649	     52.59853602	      0.00000000	      0.00000000	     34.10926945	    -21.23721566	     11.09432989	     96.58457814	     50.88937695	      0.00000000	      0.00000000
      5.04000000	    -30.90421790	      6.82593733	    -13.39268494	      0.37493874	      1.15524619	     -0.29221368	      0.00000000	      0.50000000	      0.00000000	      0.25000000	     52.18275280	     -2.91625516	      6.41008616	     38.30562777	      0.66855933	     -7.29125367	     -2.02555871	      0.00000000	      0.00000000	     59.31407574	     -1.48419560	     -0.46179357	     88.47473794	      1.54417548	    -20.42191003	     -5.27996397	      0.00000000	      0.00000000	    -60.45142797	     -5.10685201	      4.89555464	     44.29266871	    -34.68522669	     19.97820623	    105.25723741	     52.57179737	      0.00000000	      0.00000000	     34.46854721	    -21.08430981	     11.52969136	     96.43617259	     50.90892618	      0.00000000	      0.00000000
      5.04500000	    -30.68356491	      7.34507711	    -12.30852591	      0.37485239	      1.15323203	     -0.29139398	      0.00000000	      0.50000000	      0.00000000	      0.25000000	     50.76417468	     -3.83964133	      6.70974941	     36.43342483	      0.63588322	     -9.05101760	     -3.51001083	      0.00000000	      0.00000000	     60.69640800	     -0.74904568	     -0.57796291	     90.69704274	      1.58296202	    -19.79717934	     -5.12284870	      0.00000000	      0.00000000	    -60.31732980	     -5.27701085	      5.62932827	     41.58453750	    -36.79955515	     17.56346403	    106.86783129	     52.57607988	      0.00000000	      0.00000000	     36.56421427	    -20.09335850	     14.33972295	     94.64590576	     50.97806218	      0.00000000	      0.00000000
      5.05000000	    -30.50120186	      8.10342245	    -11.18493775	      0.37488938	      1.15120274	     -0.29091748	      0.00000000	      0.50000000	      0.00000000	      0.25000000	     49.47958647	     -5.13550617	      6.80691618	     34.71322627	      0.60586009	    -10.28041136	     -3.98789084	      0.00000000	      0.00000000	     62.13564089	      0.17033202	     -0.96542892	     92.77595909	      1.61924595	    -19.28474218	     -5.21808856	      0.00000000	      0.00000000	    -60.13421799	     -5.37897266	      4.52485298	     41.02217274	    -37.08418158	     17.51602091	    106.69980100	     52.54511330	      0.00000000	      0.00000000	     36.82655720	    -19.99393325	     14.50278161	     94.67553056	     50.99567572	      0.00000000	      0.00000000
      5.05500000	    -30.39698464	      8.43903177	    -10.03742813	      0.37462670	      1.14906247	     -0.29029036	      0.00000000	      0.50000000	      0.00000000	      0.25000000	     48.08795382	     -6.06833646	      6.55862386	     32.96958391	      0.57542779	    -12.00707815	     -5.36787345	      0.00000000	      0.00000000	     63.71034328	      0.72576268	     -1.02258867	     94.89216861	      1.65618078	    -18.99129758	     -5.14611656	      0.00000000	      0.00000000	    -59.93123956	     -5.26136035	      3.84575851	     40.25025258	    -37.43985591	     17.21059327	    106.57347354	     52.48968707	      0.00000000	      0.00000000	     37.17362300	    -20.04819520	     15.15031203	     94.66614579	     51.06682470	      0.00000000	      0.00000000
      5.06000000	    -30.36152439	      8.92659799	     -8.82717233	      0.37435249	      1.14688344	     -0.28963683	      0.00000000	      0.50000000	      0.00000000	      0.25000000	     46.78549124	     -7.22194090	      6.17743623	     31.30190817	      0.54632136	    -13.24786464	     -5.86309475	      0.00000000	      0.00000000	     65.37260460	      1.38408455	     -1.22008689	     96.88986316	      1.69104712	    -18.73566915	     -5.08693595	      0.00000000	      0.00000000	    -59.67593120	     -5.22943759	      2.97918429	     39.43908035	    -37.69426619	     16.96463955	    106.44755586	     52.42539117	      0.00000000	      0.00000000	     37.49224123	    -20.04195161	     15.62227669	     94.63881738	     51.09352950	      0.00000000	      0.00000000
